<svg width="56" height="56" viewBox="0 0 56 56" fill="none" xmlns="http://www.w3.org/2000/svg">
<path d="M49.8799 11.5553C49.8092 11.424 49.7061 11.3128 49.5804 11.2325C49.4547 11.1522 49.3106 11.1053 49.1617 11.0964C48.5222 11.0566 47.8807 11.0617 47.2419 11.1116C47.3875 10.2354 47.2617 9.33554 46.8813 8.53284C46.5009 7.73014 45.8842 7.06295 45.1138 6.62077C44.3434 6.1786 43.4562 5.98258 42.5712 6.05901C41.6863 6.13544 40.8458 6.48067 40.1627 7.04839C39.8926 6.46504 39.5811 5.90174 39.2307 5.36279C39.1461 5.24058 39.033 5.1409 38.9011 5.07244C38.7692 5.00398 38.6225 4.96881 38.4739 4.97C38.3248 4.97463 38.1793 5.01725 38.0512 5.0938C37.9232 5.17036 37.8167 5.27833 37.7421 5.4075L36.7661 7.09791L30.6483 1.855C29.9019 1.24203 28.9661 0.906898 28.0003 0.906738C27.0345 0.906579 26.0986 1.2414 25.3521 1.85413L19.2342 7.09783L18.2581 5.4075C18.1834 5.27833 18.077 5.17036 17.9489 5.0938C17.8208 5.01725 17.6754 4.97463 17.5262 4.97C17.3776 4.96846 17.2309 5.00351 17.099 5.07205C16.9671 5.1406 16.8541 5.24053 16.77 5.36305C16.4199 5.90145 16.1087 6.46416 15.8389 7.0469C15.1552 6.47989 14.3146 6.13537 13.4296 6.05953C12.5446 5.98368 11.6576 6.18012 10.8875 6.62254C10.1173 7.06495 9.50072 7.73219 9.12039 8.53485C8.74006 9.33751 8.61415 10.2372 8.75952 11.1135C8.12041 11.0628 7.47853 11.0572 6.83863 11.0967C6.68976 11.1056 6.54565 11.1525 6.41998 11.2328C6.29431 11.3131 6.19125 11.4241 6.12058 11.5555C6.04991 11.6868 6.01399 11.834 6.01621 11.9831C6.01844 12.1323 6.05874 12.2783 6.13329 12.4075L8.9409 17.2702C8.85247 17.3899 8.79647 17.5303 8.77833 17.678C8.67666 18.7103 8.94513 19.7451 9.53582 20.5978L20.9187 36.934C20.7137 37.0142 20.5195 37.1195 20.3405 37.2475C20.0014 37.489 19.7253 37.8085 19.5355 38.1791C19.3458 38.5497 19.2479 38.9604 19.2502 39.3768V43.2705C19.251 43.9652 19.5266 44.6313 20.0167 45.1236C20.5068 45.6158 21.1718 45.8943 21.8664 45.8981C22.1516 45.8978 22.4348 45.8513 22.7051 45.7606L23.1102 45.6255L21.0258 54.04C20.9939 54.1689 20.9918 54.3034 21.0196 54.4332C21.0474 54.563 21.1044 54.6848 21.1862 54.7894C21.2681 54.8939 21.3726 54.9785 21.492 55.0366C21.6114 55.0948 21.7424 55.125 21.8752 55.125H34.1252C34.2579 55.125 34.389 55.0948 34.5083 55.0366C34.6277 54.9785 34.7322 54.8939 34.8141 54.7894C34.8959 54.6848 34.9529 54.563 34.9807 54.4332C35.0085 54.3034 35.0064 54.1689 34.9745 54.04L32.8899 45.6257L33.295 45.7608C33.5654 45.8516 33.8486 45.898 34.1337 45.8984C34.8284 45.8946 35.4934 45.6161 35.9836 45.1238C36.4738 44.6315 36.7493 43.9653 36.7502 43.2706V39.3769C36.7525 38.9605 36.6546 38.5497 36.4648 38.1791C36.2751 37.8085 35.999 37.489 35.6598 37.2474C35.481 37.1196 35.287 37.0144 35.0823 36.9342L46.4645 20.5975C47.0823 19.7119 47.3498 18.6287 47.2155 17.5572C47.1994 17.435 47.1575 17.3176 47.0924 17.2128L49.867 12.4072C49.9415 12.2781 49.9817 12.132 49.984 11.983C49.9862 11.8339 49.9504 11.6867 49.8799 11.5553ZM44.2419 8.14931C44.79 8.46304 45.2053 8.9653 45.4105 9.56253C45.6157 10.1598 45.5968 10.8112 45.3574 11.3956C43.981 11.7048 42.6623 12.2302 41.4503 12.952C41.4689 11.5543 41.2703 10.1621 40.8617 8.82534C41.248 8.32275 41.8034 7.97727 42.4249 7.85296C43.0465 7.72865 43.6921 7.83395 44.2419 8.14931ZM38.4993 7.5964C39.5138 9.65729 39.903 11.97 39.6188 14.2495C38.4221 15.2656 37.4098 16.4805 36.6263 17.8409L35.5785 19.6559C35.3888 19.7271 35.1927 19.8072 35.001 19.8817V13.6571L38.4993 7.5964ZM26.4911 3.18299C26.9165 2.8338 27.4499 2.64302 28.0003 2.64318C28.5507 2.64334 29.084 2.83443 29.5092 3.18386L35.8759 8.63984L35.0002 10.1566V9.625C35.0002 9.47584 34.9621 9.32914 34.8894 9.19885C34.8168 9.06857 34.7121 8.95901 34.5852 8.88059C34.4583 8.80216 34.3135 8.75748 34.1644 8.75078C34.0154 8.74408 33.8672 8.77559 33.7338 8.84231C33.1601 9.13428 32.608 9.46693 32.0818 9.83772C31.7729 9.00607 31.2173 8.28864 30.4893 7.78148C29.7614 7.27432 28.896 7.00164 28.0088 6.99995C27.1216 6.99825 26.2551 7.26763 25.5253 7.772C24.7954 8.27638 24.2371 8.99168 23.925 9.82214C23.3957 9.45716 22.8416 9.12969 22.2665 8.84214C22.1331 8.77541 21.9848 8.7439 21.8358 8.75061C21.6868 8.75732 21.542 8.80201 21.4151 8.88046C21.2882 8.9589 21.1834 9.06848 21.1108 9.19879C21.0382 9.32911 21.0001 9.47582 21.0002 9.625V10.1566L20.1245 8.63984L26.4911 3.18299ZM28.9525 16.3468C29.8462 14.2297 31.3402 12.4205 33.2502 11.1426V20.5942C32.1076 21.0814 30.9381 21.6211 29.7502 22.2304V20.9513C29.7517 19.3819 29.4819 17.8241 28.9525 16.3468ZM25.412 11.0105C25.4968 10.3828 25.8067 9.80733 26.2842 9.39119C26.7617 8.97505 27.3741 8.74659 28.0074 8.74837C28.6408 8.75015 29.2519 8.98203 29.7271 9.40085C30.2022 9.81966 30.5089 10.3969 30.5902 11.025C29.5668 11.9794 28.698 13.0871 28.0149 14.3084C27.3259 13.0791 26.4475 11.9661 25.412 11.0105ZM28.0002 20.9513V23.1706C27.6691 23.3567 27.337 23.5537 27.005 23.7502C25.5764 22.9086 24.147 22.1574 22.7502 21.4874V11.14C24.3701 12.2118 25.6981 13.6697 26.6145 15.3824C27.531 17.0951 28.0072 19.0088 28.0002 20.9513ZM17.501 7.5964L21.0002 13.6571V20.656L19.3745 17.8413C18.5911 16.4817 17.5788 15.2676 16.382 14.2528C16.097 11.9723 16.486 9.6583 17.501 7.5964ZM10.5352 9.74295C10.6611 9.27091 10.9167 8.84355 11.273 8.50922C11.6292 8.17489 12.0719 7.94692 12.551 7.85111C13.0301 7.75531 13.5264 7.79548 13.9839 7.9671C14.4413 8.13871 14.8416 8.43491 15.1394 8.82219C14.73 10.161 14.5311 11.5552 14.55 12.9551C13.3383 12.2338 12.0203 11.7084 10.6447 11.3983C10.4281 10.8733 10.3896 10.2919 10.5352 9.74295ZM8.40663 12.8439C10.3455 12.9625 12.2244 13.5612 13.8744 14.5863C15.5244 15.6114 16.8936 17.0306 17.8589 18.7163L18.3607 19.5852C15.9253 18.6331 13.4354 17.8267 10.9042 17.1702L8.40663 12.8439ZM22.1516 44.1012C22.0201 44.1446 21.8802 44.1563 21.7434 44.1354C21.6065 44.1144 21.4766 44.0615 21.3641 43.9807C21.2509 43.9002 21.1588 43.7937 21.0955 43.6701C21.0321 43.5465 20.9994 43.4095 21.0002 43.2706V39.3769C20.9994 39.238 21.032 39.101 21.0953 38.9774C21.1586 38.8538 21.2506 38.7473 21.3637 38.6667C21.4763 38.5859 21.6064 38.5329 21.7434 38.512C21.8804 38.4911 22.0204 38.5028 22.152 38.5462L25.0246 39.5039C24.8451 39.7971 24.7102 40.1154 24.6244 40.4484H23.6252C23.3931 40.4484 23.1705 40.5406 23.0064 40.7047C22.8423 40.8687 22.7502 41.0913 22.7502 41.3234C22.7502 41.5554 22.8423 41.778 23.0064 41.9421C23.1705 42.1062 23.3931 42.1984 23.6252 42.1984H24.6244C24.7103 42.5315 24.8453 42.85 25.025 43.1434L22.1516 44.1012ZM33.0071 53.375H22.9932L25.0757 44.9705L26.5267 44.4868C26.9864 44.7083 27.49 44.8233 28.0002 44.8233C28.5105 44.8233 29.0141 44.7083 29.4737 44.4868L30.9248 44.9705L33.0071 53.375ZM26.2502 41.3233C26.2502 40.9772 26.3528 40.6388 26.5451 40.351C26.7374 40.0633 27.0107 39.839 27.3305 39.7065C27.6502 39.574 28.0021 39.5394 28.3416 39.6069C28.681 39.6744 28.9929 39.8411 29.2376 40.0858C29.4823 40.3306 29.649 40.6424 29.7165 40.9819C29.7841 41.3213 29.7494 41.6732 29.6169 41.993C29.4845 42.3128 29.2602 42.5861 28.9724 42.7784C28.6846 42.9706 28.3463 43.0733 28.0002 43.0733C27.5362 43.0728 27.0914 42.8882 26.7633 42.5601C26.4352 42.2321 26.2507 41.7873 26.2502 41.3233ZM35.0002 43.2706C35.0009 43.4094 34.9683 43.5464 34.905 43.67C34.8417 43.7936 34.7497 43.9002 34.6366 43.9807C34.5241 44.0614 34.3941 44.1144 34.2573 44.1353C34.1204 44.1563 33.9806 44.1446 33.8491 44.1012L30.9752 43.1433C31.1548 42.8499 31.2898 42.5314 31.3757 42.1983H32.3752C32.6072 42.1983 32.8298 42.1061 32.9939 41.942C33.158 41.7779 33.2502 41.5554 33.2502 41.3233C33.2502 41.0912 33.158 40.8687 32.9939 40.7046C32.8298 40.5405 32.6072 40.4483 32.3752 40.4483H31.3759C31.2901 40.1153 31.1552 39.797 30.9757 39.5038L33.8487 38.5461C33.9803 38.5023 34.1204 38.4904 34.2575 38.5114C34.3945 38.5323 34.5246 38.5856 34.6371 38.6667C34.7495 38.7478 34.8411 38.8545 34.9042 38.978C34.9673 39.1014 35.0002 39.2381 35.0002 39.3768V43.2706ZM32.8883 37.0223L29.473 38.1598C29.0136 37.9386 28.5101 37.8237 28.0002 37.8237C27.4902 37.8237 26.9868 37.9386 26.5273 38.1598L23.1125 37.0223L10.9714 19.5978C10.824 19.3854 10.7094 19.1521 10.6313 18.9056C15.6823 20.2188 27.7894 24.144 35.7286 32.9458L32.8883 37.0223ZM45.0289 19.5978L36.7621 31.4628C34.3646 28.9067 31.6527 26.6648 28.6914 24.7907C33.9023 21.8672 39.5553 19.8133 45.4275 18.71C45.3511 19.0281 45.2159 19.3293 45.0289 19.5978ZM45.2104 16.9719C42.8057 17.4161 40.4329 18.0185 38.1075 18.7751L38.1417 18.7159C39.1068 17.0302 40.476 15.611 42.1259 14.5859C43.7759 13.5609 45.6549 12.9622 47.5937 12.8439L45.2104 16.9719Z" fill="#AE8646"/>
</svg>
