<svg width="57" height="56" viewBox="0 0 57 56" fill="none" xmlns="http://www.w3.org/2000/svg">
<g clip-path="url(#clip0_7733_15246)">
<path d="M54.5645 20.3496L47.3065 13.0916C45.7978 11.5829 43.7919 10.752 41.6582 10.752H15.3418C13.2081 10.752 11.2022 11.5829 9.69344 13.0916L2.43543 20.3495C0.831117 21.9539 0.702711 24.4896 2.13694 26.2477L25.0873 54.3803C25.9274 55.4101 27.1712 56.0006 28.5 56.0006C29.8288 56.0006 31.0726 55.4101 31.9126 54.3804L54.863 26.2478C56.2972 24.4896 56.1689 21.954 54.5645 20.3496ZM43.3838 12.6307L40.0798 21.9921L30.4805 12.3927H41.6583C42.2501 12.3927 42.8291 12.4749 43.3838 12.6307ZM38.167 22.3994H18.833L28.5 12.7324L38.167 22.3994ZM26.5197 12.3927L16.9203 21.9921L13.6163 12.6307C14.1709 12.4749 14.75 12.3927 15.3418 12.3927H26.5197ZM10.8536 14.2517C11.234 13.8713 11.6543 13.5457 12.1048 13.2776L15.3243 22.3994H2.99893C3.13455 22.0759 3.33263 21.7727 3.59557 21.5097L10.8536 14.2517ZM28.3428 54.3555L18.5944 26.7352C18.4437 26.308 17.975 26.084 17.5479 26.2347C17.1207 26.3856 16.8966 26.8541 17.0474 27.2812L26.1596 53.0992L3.40832 25.2107C3.1211 24.8586 2.93484 24.4566 2.84559 24.04H39.3569L28.6573 54.3555C28.6051 54.3584 28.5528 54.36 28.5 54.36C28.4474 54.36 28.3949 54.3584 28.3428 54.3555ZM30.8405 53.0992L44.8952 13.2776C45.3457 13.5457 45.7662 13.8713 46.1465 14.2517L53.4045 21.5097C53.6674 21.7726 53.8655 22.0759 54.0011 22.3994H44.6273C44.1742 22.3994 43.8069 22.7667 43.8069 23.2197C43.8069 23.6727 44.1742 24.04 44.6273 24.04H54.1546C54.0653 24.4566 53.8791 24.8586 53.5919 25.2107L30.8405 53.0992Z" fill="#EBEBEB"/>
<path d="M28.5 7.9123C28.953 7.9123 29.3203 7.54513 29.3203 7.09198V0.820312C29.3203 0.367281 28.953 0 28.5 0C28.047 0 27.6797 0.367281 27.6797 0.820312V7.09198C27.6797 7.54502 28.047 7.9123 28.5 7.9123Z" fill="#EBEBEB"/>
<path d="M19.7029 7.45874C19.8466 7.74618 20.1363 7.91232 20.4373 7.91232C20.5605 7.91232 20.6857 7.88443 20.8035 7.82558C21.2087 7.62291 21.373 7.13029 21.1703 6.72505L19.3784 3.14116C19.1757 2.73593 18.6832 2.57164 18.2779 2.77432C17.8726 2.97699 17.7084 3.46961 17.911 3.87485L19.7029 7.45874Z" fill="#EBEBEB"/>
<path d="M36.1968 7.82549C36.3146 7.88444 36.4397 7.91222 36.563 7.91222C36.8639 7.91222 37.1536 7.74597 37.2973 7.45864L39.0892 3.87475C39.2919 3.46952 39.1276 2.97678 38.7224 2.77422C38.3173 2.57177 37.8245 2.73583 37.6218 3.14106L35.8299 6.72496C35.6274 7.13019 35.7915 7.62292 36.1968 7.82549Z" fill="#EBEBEB"/>
</g>
<defs>
<clipPath id="clip0_7733_15246">
<rect width="56" height="56" fill="white" transform="translate(0.5)"/>
</clipPath>
</defs>
</svg>
