<svg width="63" height="63" viewBox="0 0 63 63" fill="none" xmlns="http://www.w3.org/2000/svg">
<g clip-path="url(#clip0_200_3777)">
<circle cx="31.5" cy="31.5" r="30.5" stroke="#EBEBEB" stroke-width="2"/>
<path d="M23.944 41.144C22.648 41.144 21.488 40.8 20.464 40.112C19.456 39.424 18.664 38.44 18.088 37.16C17.528 35.864 17.248 34.344 17.248 32.6C17.248 30.856 17.528 29.344 18.088 28.064C18.664 26.768 19.456 25.776 20.464 25.088C21.488 24.4 22.648 24.056 23.944 24.056C25.24 24.056 26.392 24.4 27.4 25.088C28.424 25.776 29.224 26.768 29.8 28.064C30.376 29.344 30.664 30.856 30.664 32.6C30.664 34.344 30.376 35.864 29.8 37.16C29.224 38.44 28.424 39.424 27.4 40.112C26.392 40.8 25.24 41.144 23.944 41.144ZM23.944 39.56C24.92 39.56 25.776 39.288 26.512 38.744C27.264 38.2 27.848 37.408 28.264 36.368C28.68 35.328 28.888 34.072 28.888 32.6C28.888 31.128 28.68 29.872 28.264 28.832C27.848 27.792 27.264 27 26.512 26.456C25.776 25.912 24.92 25.64 23.944 25.64C22.968 25.64 22.104 25.912 21.352 26.456C20.616 27 20.04 27.792 19.624 28.832C19.208 29.872 19 31.128 19 32.6C19 34.072 19.208 35.328 19.624 36.368C20.04 37.408 20.616 38.2 21.352 38.744C22.104 39.288 22.968 39.56 23.944 39.56ZM47.4186 36.584H44.0586V41H42.3306V36.584H32.8506V35.336L41.7546 24.2H43.6746L35.0826 35.048H42.3786V31.16H44.0586V35.048H47.4186V36.584Z" fill="#EBEBEB"/>
</g>
<defs>
<clipPath id="clip0_200_3777">
<rect width="63" height="63" fill="white"/>
</clipPath>
</defs>
</svg>
