<svg width="63" height="63" viewBox="0 0 63 63" fill="none" xmlns="http://www.w3.org/2000/svg">
<g clip-path="url(#clip0_195_3326)">
<circle cx="31.5024" cy="31.5" r="30.5" stroke="#EBEBEB" stroke-width="2"/>
<path d="M23.944 41.144C22.648 41.144 21.488 40.8 20.464 40.112C19.456 39.424 18.664 38.44 18.088 37.16C17.528 35.864 17.248 34.344 17.248 32.6C17.248 30.856 17.528 29.344 18.088 28.064C18.664 26.768 19.456 25.776 20.464 25.088C21.488 24.4 22.648 24.056 23.944 24.056C25.24 24.056 26.392 24.4 27.4 25.088C28.424 25.776 29.224 26.768 29.8 28.064C30.376 29.344 30.664 30.856 30.664 32.6C30.664 34.344 30.376 35.864 29.8 37.16C29.224 38.44 28.424 39.424 27.4 40.112C26.392 40.8 25.24 41.144 23.944 41.144ZM23.944 39.56C24.92 39.56 25.776 39.288 26.512 38.744C27.264 38.2 27.848 37.408 28.264 36.368C28.68 35.328 28.888 34.072 28.888 32.6C28.888 31.128 28.68 29.872 28.264 28.832C27.848 27.792 27.264 27 26.512 26.456C25.776 25.912 24.92 25.64 23.944 25.64C22.968 25.64 22.104 25.912 21.352 26.456C20.616 27 20.04 27.792 19.624 28.832C19.208 29.872 19 31.128 19 32.6C19 34.072 19.208 35.328 19.624 36.368C20.04 37.408 20.616 38.2 21.352 38.744C22.104 39.288 22.968 39.56 23.944 39.56ZM38.6163 31.4C40.3763 31.496 41.7123 31.976 42.6243 32.84C43.5523 33.688 44.0163 34.8 44.0163 36.176C44.0163 37.136 43.7843 37.992 43.3203 38.744C42.8563 39.48 42.1683 40.064 41.2563 40.496C40.3443 40.928 39.2323 41.144 37.9203 41.144C36.7043 41.144 35.5523 40.952 34.4643 40.568C33.3923 40.168 32.5283 39.64 31.8723 38.984L32.7123 37.616C33.2723 38.192 34.0163 38.664 34.9443 39.032C35.8723 39.384 36.8643 39.56 37.9203 39.56C39.2963 39.56 40.3603 39.264 41.1123 38.672C41.8643 38.064 42.2403 37.232 42.2403 36.176C42.2403 35.136 41.8643 34.32 41.1123 33.728C40.3603 33.136 39.2243 32.84 37.7043 32.84H36.5043V31.568L41.1603 25.736H32.5683V24.2H43.3683V25.424L38.6163 31.4Z" fill="#EBEBEB"/>
</g>
<defs>
<clipPath id="clip0_195_3326">
<rect width="63" height="63" fill="white"/>
</clipPath>
</defs>
</svg>
