<svg width="63" height="63" viewBox="0 0 63 63" fill="none" xmlns="http://www.w3.org/2000/svg">
<g clip-path="url(#clip0_195_3298)">
<circle cx="31.5" cy="31.5" r="30.5" stroke="#EBEBEB" stroke-width="2"/>
<path d="M26.944 41.144C25.648 41.144 24.488 40.8 23.464 40.112C22.456 39.424 21.664 38.44 21.088 37.16C20.528 35.864 20.248 34.344 20.248 32.6C20.248 30.856 20.528 29.344 21.088 28.064C21.664 26.768 22.456 25.776 23.464 25.088C24.488 24.4 25.648 24.056 26.944 24.056C28.24 24.056 29.392 24.4 30.4 25.088C31.424 25.776 32.224 26.768 32.8 28.064C33.376 29.344 33.664 30.856 33.664 32.6C33.664 34.344 33.376 35.864 32.8 37.16C32.224 38.44 31.424 39.424 30.4 40.112C29.392 40.8 28.24 41.144 26.944 41.144ZM26.944 39.56C27.92 39.56 28.776 39.288 29.512 38.744C30.264 38.2 30.848 37.408 31.264 36.368C31.68 35.328 31.888 34.072 31.888 32.6C31.888 31.128 31.68 29.872 31.264 28.832C30.848 27.792 30.264 27 29.512 26.456C28.776 25.912 27.92 25.64 26.944 25.64C25.968 25.64 25.104 25.912 24.352 26.456C23.616 27 23.04 27.792 22.624 28.832C22.208 29.872 22 31.128 22 32.6C22 34.072 22.208 35.328 22.624 36.368C23.04 37.408 23.616 38.2 24.352 38.744C25.104 39.288 25.968 39.56 26.944 39.56ZM40.7478 24.2V41H39.0198V25.736H35.0598V24.2H40.7478Z" fill="#EBEBEB"/>
</g>
<defs>
<clipPath id="clip0_195_3298">
<rect width="63" height="63" fill="white"/>
</clipPath>
</defs>
</svg>
